# xmcd CD database file
#
# Track frame offsets:
#	150
#	18037
#	35717
#	49320
#	62565
#	84727
#	93697
#	103950
#	116095
#	126260
#
# Disc length: 1927 seconds
#
# Revision: 3
# Processed by: cddbd v1.5.2PL0 Copyright (c) Steve Scherf et al.
# Submitted via: CDex 1.70beta3
#
DISCID=8c07850a
DTITLE=頭脳警察 - 頭脳警察1
DYEAR=1972
DGENRE=Rock
TTITLE0=イントロダクション ～ 世界革命戦争宣言
TTITLE1=赤軍兵士の詩
TTITLE2=銃をとれ (Part 1)
TTITLE3=さようなら世界夫人よ
TTITLE4=暗闇の人生
TTITLE5=彼女は革命家
TTITLE6=戦争しか知らない子供たち
TTITLE7=お前が望むなら
TTITLE8=言い訳なんか要らねえよ
TTITLE9=銃をとれ (Part 2)
EXTD=YEAR: 1972
EXTT0=
EXTT1=
EXTT2=
EXTT3=
EXTT4=
EXTT5=
EXTT6=
EXTT7=
EXTT8=
EXTT9=
PLAYORDER=
